<?xml version="1.0" encoding="UTF-8" standalone="no"?>
<svg width="188px" height="204px" viewBox="0 0 188 204" version="1.1" xmlns="http://www.w3.org/2000/svg" xmlns:xlink="http://www.w3.org/1999/xlink" xmlns:sketch="http://www.bohemiancoding.com/sketch/ns">
    <!-- Generator: Sketch 3.3.3 (12081) - http://www.bohemiancoding.com/sketch -->
    <title>iso@1x</title>
    <desc>Created with Sketch.</desc>
    <defs></defs>
    <g id="Home-exploration" stroke="none" stroke-width="1" fill="none" fill-rule="evenodd" sketch:type="MSPage">
        <g id="DISCOVER_1-Copy" sketch:type="MSArtboardGroup" transform="translate(-290.000000, -336.000000)">
            <g id="iso" sketch:type="MSLayerGroup" transform="translate(375.000000, 442.500000) rotate(40.000000) translate(-375.000000, -442.500000) translate(296.000000, 326.000000)">
                <path d="M68.5436285,0.622376672 C71.8042865,0.211665676 75.1273043,8.52651283e-14 78.5,8.52651283e-14 C121.854353,8.52651283e-14 157,34.9753065 157,78.1195335 C157,121.263761 121.854353,156.239067 78.5,156.239067 C35.1456471,156.239067 4.54747351e-13,121.263761 4.54747351e-13,78.1195335 C4.54747351e-13,61.1016544 5.46810731,45.3547302 14.7512319,32.523839 C17.6413792,47.9231918 31.2183871,59.5791988 47.5310604,59.5791988 C65.9485017,59.5791988 80.8787879,44.7212754 80.8787879,26.3930979 C80.8787879,15.991208 76.0697956,6.70707452 68.5436285,0.622376672 Z" id="Oval-9" fill="#F74F36" sketch:type="MSShapeGroup"></path>
                <path d="M68.5436285,0.622376672 C71.8042865,0.211665676 75.1273043,8.52651283e-14 78.5,8.52651283e-14 C121.854353,8.52651283e-14 157,34.9753065 157,78.1195335 C157,121.263761 121.854353,156.239067 78.5,156.239067 C35.1456471,156.239067 4.54747351e-13,121.263761 4.54747351e-13,78.1195335 C4.54747351e-13,61.1016544 5.46810731,45.3547302 14.7512319,32.523839 C17.6413792,47.9231918 31.2183871,59.5791988 47.5310604,59.5791988 C65.9485017,59.5791988 80.8787879,44.7212754 80.8787879,26.3930979 C80.8787879,15.991208 76.0697956,6.70707452 68.5436285,0.622376672 Z" id="Oval-9-Copy-3" fill-opacity="0.200000018" sketch:type="MSShapeGroup"></path>
                <path d="M28.575577,138.577259 L128.424423,138.577259 L128.424423,138.577259 C126.067508,140.511429 123.005296,142.930283 119.619048,145.370262 C112.002927,150.858099 108.064935,152.163265 103.987013,155.559767 C99.9090909,158.956268 96.5108225,163.03207 95.8311688,167.787172 C95.7839721,168.117377 95.7400529,168.483615 95.6991835,168.87929 C95.6720472,168.967927 95.6453368,169.056756 95.6190546,169.145773 L62.0605991,169.145773 C61.6137669,167.632364 61.0431522,166.173516 60.3607328,164.781426 C59.3518161,162.233052 57.5999713,159.90649 55.4856441,157.801739 C54.0581552,156.311409 52.4669552,154.984411 50.7416324,153.850872 C47.3533827,151.537768 43.5891286,149.843597 37.3809524,145.370262 C33.9947039,142.930283 30.9324916,140.511429 28.575577,138.577259 Z" id="Rectangle-247" fill="#EAE8D3" sketch:type="MSShapeGroup"></path>
                <path d="M65.2467532,201.752187 C65.2467532,191.853059 63.8874458,179.335277 61.8484848,169.145773 C61.5656988,167.732577 61.82072,168.977504 61.82072,168.977504 C61.8360541,164.56843 65.4209984,160.994169 69.8481278,160.994169 L87.8315259,160.994169 C92.2496067,160.994169 95.9296566,164.571768 95.8599286,168.984863 C95.8599286,168.984863 96.096954,167.994631 95.8311676,169.145773 C93.7922066,177.976676 93.1125541,194.019608 93.1125541,201.752187 C93.1125541,213.117948 94.8516073,225.076873 94.8516073,225.076873 C95.3926042,229.452695 92.2586553,233 87.8315259,233 L69.8481278,233 C65.430047,233 62.3683079,229.453391 62.9776984,225.073401 C62.9776984,225.073401 65.2467532,210.696431 65.2467532,201.752187 Z" id="Rectangle-248" fill="#EAE8D3" sketch:type="MSShapeGroup"></path>
            </g>
        </g>
    </g>
</svg>