<?xml version="1.0" encoding="UTF-8" standalone="no"?>
<svg width="107px" height="107px" viewBox="0 0 107 107" version="1.1" xmlns="http://www.w3.org/2000/svg" xmlns:xlink="http://www.w3.org/1999/xlink" xmlns:sketch="http://www.bohemiancoding.com/sketch/ns">
    <!-- Generator: Sketch 3.3.3 (12081) - http://www.bohemiancoding.com/sketch -->
    <title>placeholder-avatar</title>
    <desc>Created with Sketch.</desc>
    <defs>
        <rect id="path-1" x="0" y="0" width="107" height="107" rx="140"></rect>
    </defs>
    <g id="Home-exploration" stroke="none" stroke-width="1" fill="none" fill-rule="evenodd" sketch:type="MSPage">
        <g id="DISCOVER_2" sketch:type="MSArtboardGroup" transform="translate(-46.000000, -356.000000)">
            <g id="placeholder-avatar" sketch:type="MSLayerGroup" transform="translate(46.000000, 356.000000)">
                <g id="Rectangle-428-Copy-2-+-Captura-de-pantalla-2015-05-07-a-las-14.07.26-Copy">
                    <mask id="mask-2" sketch:name="Mask" fill="white">
                        <use xlink:href="#path-1"></use>
                    </mask>
                    <use id="Mask" fill="#D0D0D0" sketch:type="MSShapeGroup" xlink:href="#path-1"></use>
                </g>
                <path d="M62.6935378,57.3553546 C68.4201804,54.1307243 72.2964199,48.0072684 72.2964199,40.9690534 C72.2964199,30.5892526 63.8756238,22.1726335 53.5,22.1726335 C43.1201992,22.1726335 34.7035801,30.5892526 34.7035801,40.9690534 C34.7035801,48.0072684 38.5798196,54.1307243 44.3022852,57.3553546 C35.0168538,61.0227449 28.4381068,70.0617344 28.4381068,80.6503843 L28.4381068,84.8273665 L32.615089,84.8273665 L32.615089,80.6503843 C32.615089,69.1135595 41.9673521,59.7654733 53.5,59.7654733 C65.0368248,59.7654733 74.384911,69.1135595 74.384911,80.6503843 L74.384911,84.8273665 L78.5618932,84.8273665 L78.5618932,80.6503843 C78.5618932,70.0617344 71.9789693,61.0227449 62.6935378,57.3553546 L62.6935378,57.3553546 Z M38.8805623,40.9690534 C38.8805623,32.8949468 45.4258934,26.3496157 53.5,26.3496157 C61.5782836,26.3496157 68.1194377,32.8949468 68.1194377,40.9690534 C68.1194377,49.04316 61.5782836,55.5884911 53.5,55.5884911 C45.4258934,55.5884911 38.8805623,49.04316 38.8805623,40.9690534 L38.8805623,40.9690534 Z" id="Shape-Copy" opacity="0.699999988" fill="#FFFFFF" sketch:type="MSShapeGroup"></path>
            </g>
        </g>
    </g>
</svg>