<?xml version="1.0" encoding="UTF-8" standalone="no"?>
<svg width="47px" height="31px" viewBox="0 0 47 31" version="1.1" xmlns="http://www.w3.org/2000/svg" xmlns:xlink="http://www.w3.org/1999/xlink" xmlns:sketch="http://www.bohemiancoding.com/sketch/ns">
    <!-- Generator: Sketch 3.3.3 (12081) - http://www.bohemiancoding.com/sketch -->
    <title>ranking</title>
    <desc>Created with Sketch.</desc>
    <defs></defs>
    <g id="Home-exploration" stroke="none" stroke-width="1" fill="none" fill-rule="evenodd" sketch:type="MSPage">
        <g id="DISCOVER_2" sketch:type="MSArtboardGroup" transform="translate(-82.000000, -165.000000)" fill="#3D385C">
            <g id="ranking" sketch:type="MSLayerGroup" transform="translate(82.000000, 165.000000)">
                <path d="M43.5,7 L47,7 L47,0 L43.5,0 L15.5,0 L12,0 L12,7 L15.5,7 L43.5,7 Z" id="Shape" sketch:type="MSShapeGroup"></path>
                <path d="M15.5,19 L43.5,19 L47,19 L47,12 L43.5,12 L15.5,12 L12,12 L12,19 L15.5,19 L15.5,19 Z" id="Shape" sketch:type="MSShapeGroup"></path>
                <path d="M15.5,31 L43.5,31 L47,31 L47,24 L43.5,24 L15.5,24 L12,24 L12,31 L15.5,31 L15.5,31 Z" id="Shape" sketch:type="MSShapeGroup"></path>
                <path d="M3.5,7 L4.5,7 L8,7 L8,0 L4.5,0 L3.5,0 L0,0 L0,7 L3.5,7 L3.5,7 Z" id="Shape" sketch:type="MSShapeGroup"></path>
                <path d="M3.5,19 L4.5,19 L8,19 L8,12 L4.5,12 L3.5,12 L0,12 L0,19 L3.5,19 L3.5,19 Z" id="Shape" sketch:type="MSShapeGroup"></path>
                <path d="M3.5,31 L4.5,31 L8,31 L8,24 L4.5,24 L3.5,24 L0,24 L0,31 L3.5,31 L3.5,31 Z" id="Shape" sketch:type="MSShapeGroup"></path>
            </g>
        </g>
    </g>
</svg>